<?xml version="1.0" standalone="no"?><!DOCTYPE svg PUBLIC "-//W3C//DTD SVG 1.1//EN" "http://www.w3.org/Graphics/SVG/1.1/DTD/svg11.dtd"><svg t="1652780813247" class="icon" viewBox="0 0 1024 1024" version="1.1" xmlns="http://www.w3.org/2000/svg" p-id="5229" xmlns:xlink="http://www.w3.org/1999/xlink" width="200" height="200"><defs><style type="text/css"></style></defs><path d="M300.8 571.989333l150.784 150.869334-60.288 60.330666 60.373333 60.373334-60.330666 60.330666-105.6-105.6-120.704 120.704-60.330667-60.330666 120.704-120.746667-105.6-105.557333 60.330667-60.330667 60.330666 60.288 60.288-60.330667zM128 128l151.296 0.128 504.192 504.234667 60.373333-60.330667 60.330667 60.330667-105.557333 105.6 120.661333 120.704-60.330667 60.330666-120.704-120.704-105.6 105.6-60.330666-60.330666 60.330666-60.373334L128.128 278.656 128 128z m616.832 0L896 128.128l0.085333 150.314667-172.928 172.885333-150.869333-150.826667L744.832 128z" p-id="5230"></path></svg>